<svg width="631" height="119" xmlns="http://www.w3.org/2000/svg" version="1.0" preserveAspectRatio="xMidYMid meet" zoomAndPan="magnify">
 <defs>
  <linearGradient y2="0" y1="0" x2="1" x1="0" id="Gradient">
   <stop stop-color="#020140" offset="0%"/>
   <stop stop-color="#1800AD" offset="25%"/>
   <stop stop-color="#4425FF" offset="50%"/>
   <stop stop-color="#1800AD" offset="75%"/>
   <stop stop-color="#020140" offset="100%"/>
  </linearGradient>
 </defs>
 <g>
  <title>Layer 1</title>
  <path id="svg_1" fill-rule="evenodd" d="m208.98046,0.31562c-5.60937,0.78125 -11.70703,2.88281 -19.26953,6.64453c-13.28125,6.60937 -24.28125,20.27343 -28.53515,35.44922c-0.77735,2.77343 -1.64844,5.27734 -1.94141,5.5625c-0.29297,0.28515 -10.54687,0.73828 -22.78906,1.0039l-22.26172,0.48828l-0.00781,-22.70312c-0.00782,-13.03125 -0.28516,-23.13281 -0.65235,-23.71485c-0.83203,-1.3164 -15.38281,-1.92187 -17.60156,-0.73437c-1.44531,0.77344 -1.44922,0.84766 -1.44922,31.77734l0,31.00391l6.28906,-0.47656c3.45704,-0.26563 24.94532,-0.76953 47.7461,-1.12891c22.80469,-0.35547 46.33984,-0.83594 52.30078,-1.06641l10.83984,-0.42187l-2.61328,-1.33984c-3.24219,-1.66407 -14.05859,-2.5 -33,-2.55079c-7.28906,-0.01562 -13.96484,-0.22265 -14.83984,-0.45703c-4.4961,-1.20312 2.85937,-1.57812 31.49219,-1.59375c31.59375,-0.01953 36.36328,-0.23437 36.36328,-1.63281c0,-1.24219 -5.22266,-7.21484 -8.62891,-9.86328c-3.01172,-2.34766 -3.33984,-2.44141 -8.63281,-2.41797c-6.30078,0.02734 -11.16406,1.76172 -14.39063,5.125c-1.04687,1.09375 -2.33593,1.98828 -2.85937,1.98828c-1.45703,0 -11.25,-3.5039 -12.20313,-4.36328c-1.2539,-1.13281 0.02735,-4.97266 3.28516,-9.84766c6.55078,-9.8164 16.83984,-15.16015 29.15625,-15.15234c18.07422,0.01172 30.78516,10.3125 35.71094,28.92969l1.46093,5.53125l9.96485,0.1875l9.95703,0.1875l0,-2.51953c0,-6.96094 -6.21875,-21.84375 -12.97266,-31.03907c-8.51953,-11.60156 -24.71484,-20.10937 -40.12109,-21.07031c-3.13281,-0.19531 -7.54297,-0.09765 -9.79688,0.21485m-207.79296,2.07812c-1.11719,0.66797 -1.1875,4.03516 -1.1875,55.26563c0,44.07031 0.17187,54.78515 0.89453,55.77343c0.73828,1.01172 2.19922,1.28516 8.32422,1.5586c4.5039,0.20312 8.16406,0.04687 9.29296,-0.39453l1.85938,-0.72657l0.35937,-43.20312l16.99219,-0.4336c18.25391,-0.46875 21.89063,-1.10546 28.54688,-4.99609c12.66797,-7.41016 18.8789,-22.06641 15.70312,-37.05078c-2.625,-12.37891 -9.30469,-19.90625 -21.86719,-24.64453c-3.89453,-1.47266 -4.94921,-1.52735 -30.8789,-1.69141c-17.82031,-0.11328 -27.25,0.07031 -28.03906,0.54297m288.01953,-0.11328l-3.39844,0.41797l-0.35938,52.86719l4.59766,-0.46094c11.63281,-1.16406 12.08594,-1.1836 11.01172,-0.49219c-0.58594,0.37891 -3.79688,1.04688 -7.13672,1.48438c-7.20312,0.94921 -7.77344,1.08593 -7.77344,1.88671c0,1.17579 8.06641,1.4336 48.78125,1.57032c30.625,0.10156 41.17188,-0.06641 41.76953,-0.66016c0.60938,-0.61328 -0.46875,-0.80469 -4.60546,-0.81641c-9.40235,-0.02734 -12.53907,-1.39843 -12.53907,-5.47656c0,-1.41797 -0.41015,-1.9375 -1.79297,-2.28515c-0.98437,-0.2461 -13.14453,-0.39844 -27.01562,-0.33594l-25.22656,0.11719l-0.21485,-9.76563c-0.11718,-5.37109 -0.01562,-12.26562 0.22657,-15.32031l0.4375,-5.55078l27.15625,-0.22657c23.23437,-0.1875 27.25,-0.37109 27.80078,-1.24218c0.35547,-0.5586 0.64843,-4.1211 0.65625,-7.91407c0.00781,-5.89843 -0.16016,-6.97656 -1.17969,-7.46875c-1.37109,-0.66015 -66.08594,-0.96093 -71.19531,-0.32812m92.91015,-0.13672c-1.61328,0.21875 -2.42187,0.78516 -2.88672,2.00391c-0.90234,2.375 -0.85546,103.80859 0.05079,107.07031c0.52734,1.89062 1.20312,2.66406 2.8164,3.23047c2.25,0.78125 13.98047,1.02734 15.80078,0.32812c0.96485,-0.37109 1.07813,-4.32812 1.07813,-37.72265c0,-22.14063 0.25,-37.3125 0.62109,-37.3125c0.80469,0 3.80078,3.86718 7.63672,9.85547c1.67578,2.61718 5.78125,8.46093 9.11719,12.98437c3.33984,4.52734 9.98047,13.85547 14.7539,20.73047c12.94922,18.64453 20.31641,28.52734 22.46485,30.11719c1.67969,1.24218 2.87109,1.41797 9.63281,1.41797c6.78906,0 7.94922,-0.17188 9.63672,-1.4336l1.92187,-1.42969l0.17188,-54.72656l0.17578,-54.72656l-2.12891,-0.42578c-4.18359,-0.83594 -15.21875,-0.47656 -16.61328,0.53906c-1.26953,0.92969 -1.33203,2.34766 -1.65625,39.59375l-0.33984,38.625l-2.99219,-4.75781c-1.64062,-2.61719 -5.03906,-7.50781 -7.54687,-10.875c-2.51172,-3.36328 -7.14844,-9.78516 -10.3125,-14.27344c-21.62891,-30.67578 -30.48438,-42.32031 -35.375,-46.50781c-2.71875,-2.32422 -3.07813,-2.4336 -8.3125,-2.51953c-3.00782,-0.05078 -6.48047,0.04297 -7.71485,0.21484m115.75391,0.14063l-2.71875,0.41406l0,55.1914c0,44.39844 0.17187,55.36329 0.88281,56.07422c1.27735,1.27735 16.4961,1.23438 18.04297,-0.04687c1.02734,-0.85547 1.125,-5.6211 1.125,-56.17188c0,-49.74609 -0.10937,-55.28125 -1.07812,-55.65234c-1.31641,-0.50781 -12.53125,-0.37109 -16.25391,0.19141m33.86719,0.46484c-0.25391,0.66406 0.96093,3.07422 3.16797,6.28906c1.96484,2.86719 7.22656,10.56641 11.6914,17.10938c4.46094,6.54297 10.71094,15.5664 13.88672,20.05078c3.17578,4.48828 6.23438,8.82422 6.79688,9.63672c0.95312,1.375 0.82421,1.85156 -1.84375,6.79687c-1.58204,2.92578 -5.53907,9.14063 -8.80079,13.8125c-3.26171,4.67188 -8.39843,12.22266 -11.41796,16.77735c-3.01954,4.55859 -7.33594,10.77734 -9.59766,13.82421c-2.25781,3.04688 -4.10547,5.97266 -4.10547,6.5c0,0.78907 1.875,0.95704 10.36328,0.9375c6.85156,-0.01562 10.8711,-0.30468 11.85938,-0.85546c2.19922,-1.22266 6.76172,-7.32813 16.90234,-22.6211c4.97266,-7.5039 9.49609,-14.01953 10.04688,-14.47656c0.79687,-0.66016 1.17578,-0.64844 1.8164,0.05078c0.44922,0.48438 6.0586,8.66016 12.46485,18.16797c6.41015,9.50391 12.5,17.90234 13.53515,18.66406c1.60938,1.1836 3.15625,1.42188 10.53516,1.64453c8.89844,0.26172 12.39062,-0.35547 12.39062,-2.1914c0,-0.54688 -1.78125,-3.23438 -3.96093,-5.96485c-2.17579,-2.73047 -5.13282,-6.95703 -6.57032,-9.38672c-3.32031,-5.60937 -15.92578,-24.21093 -20.03515,-29.5664c-3.82813,-4.98438 -6.81641,-9.41406 -6.81641,-10.09766c0,-0.6289 8.96094,-13.67187 17.89063,-26.03906c3.67187,-5.08594 7.45703,-10.50391 8.41406,-12.04297c0.95703,-1.53906 3.83984,-5.73828 6.40625,-9.33203c2.57031,-3.59766 4.67187,-6.88672 4.67187,-7.30859c0,-1.125 -20.84765,-1.03516 -23.09375,0.10156c-0.92578,0.46875 -4.80468,5.49609 -8.625,11.17578c-3.82031,5.67578 -9.25781,13.6875 -12.08203,17.80078c-2.82812,4.11719 -5.13672,7.82813 -5.13672,8.24609c0,2.14063 -2.57812,-1.08593 -11.72656,-14.6914c-6.8125,-10.1211 -11.52734,-16.37891 -14.70312,-19.49219l-4.67579,-4.58984l-9.61718,0c-8.12891,0 -9.6836,0.16797 -10.03125,1.07031m-506.9336,15.85937l-3.39843,0.40235l-0.17969,16.48437l-0.1836,16.48047l12.83985,0c13.91015,0 16.42578,-0.45703 21.38281,-3.88672c1.42578,-0.98828 3.41406,-3.1914 4.41797,-4.90234c1.55859,-2.64844 1.82031,-3.85156 1.78906,-8.20313c-0.05469,-7.40625 -2.59375,-11.29687 -9.30078,-14.26562c-5.21875,-2.30859 -17.62891,-3.26172 -27.36719,-2.10938m322.17188,45.63672c-33.5586,2.11719 -133.0625,2.92969 -212.30078,1.73828c-39.39844,-0.59375 -40.33203,-0.57812 -40.08985,0.67969c0.37891,1.98828 7.50391,2.46094 30.8125,2.05078c21.47657,-0.38281 59.51563,0.49219 63.55078,1.46094c3.82813,0.91797 -10.76171,2.51172 -17.44531,1.90625c-2.90234,-0.26172 -17.67578,-0.75 -32.82812,-1.08984c-15.15235,-0.33203 -31.2461,-0.82032 -35.76172,-1.07422l-8.21485,-0.46485l-0.45312,20.06641c-0.24609,11.03906 -0.25781,21.02734 -0.02344,22.19922c0.54688,2.73828 1.86719,3.08984 11.66016,3.11328c6.08984,0.01172 7.80078,-0.19141 8.3164,-1.00391c0.36329,-0.57421 0.64844,-8.51171 0.65625,-18.17968l0.00782,-17.16407l45.40625,0l3.07422,6.32032c11.73046,24.11328 34.98046,37.01172 59.58984,33.0625c18.75391,-3.00782 34.51172,-14.74219 43.41797,-32.32813c1.11328,-2.19531 2.23047,-4.83594 2.48828,-5.86328l0.46094,-1.87109l-9.07813,0.01172c-4.99609,0.0039 -9.76172,0.1914 -10.59765,0.41406c-0.83594,0.22265 -2.4336,1.89453 -3.55469,3.71484c-2.76563,4.4961 -11.94531,13.33594 -15.48438,14.91406c-4.64062,2.06641 -13.53906,3.03516 -19.78125,2.15235c-8.89843,-1.25781 -12.14453,-2.85547 -18.61328,-9.16797c-5.13672,-5.01172 -11.39453,-13.83594 -11.39453,-16.0625c0,-0.50781 6.73828,-0.73438 21.91797,-0.74219c16.48828,-0.0039 22.79687,-0.24219 25.45312,-0.94922c2.92579,-0.77734 9.01954,-0.83593 35.6836,-0.33203c34.70703,0.65625 67.77734,-0.07422 77.98047,-1.72265c3.20703,-0.51954 8.58593,-1.71485 11.94922,-2.65625c3.35937,-0.94532 7.10156,-1.91016 8.3125,-2.15235c1.21093,-0.24219 2.375,-0.72265 2.58984,-1.0664c0.4375,-0.71094 -5.51953,-0.6836 -17.70703,0.08593m-61.05469,14.01172c-0.25,0.25 -0.45703,8.16406 -0.45703,17.58985c0,15.10546 0.13672,17.24609 1.125,18.07031c0.91406,0.75781 7.74609,0.96875 36.58594,1.1289c21.48047,0.1211 36.13672,-0.05859 37.17187,-0.45312c1.5625,-0.59375 1.75,-1.09766 2.09766,-5.63672c0.21094,-2.74219 0.17969,-6.35937 -0.06641,-8.04297l-0.44922,-3.05859l-27.1875,-0.33985c-14.95312,-0.1875 -27.5664,-0.58593 -28.03515,-0.89062c-0.60547,-0.39063 -0.85157,-3.03516 -0.85157,-9.25l0,-8.69922l-3.5664,-0.42969c-4.73047,-0.5664 -15.79688,-0.55859 -16.36719,0.01172" fill="url('#Gradient')"/>
 </g>
</svg>
